# xmcd
#
# Track frame offsets:
#	150
#	13440
#	26746
#	41606
#	54180
#	63979
#	75261
#	86777
#	102702
#	113209
#	127310
#	137414
#	156422
#	168965
#	182237
#	195020
#	211486
#	223917
#	238899
#	250079
#	261118
#	276238
#	286264
#	298033
#	311279
#
# Disc length: 4370 seconds
#
# Revision: 1
# Processed by: cddbd v1.5.2PL0 Copyright (c) Steve Scherf et al.
# Submitted via: audiograbber 1.82.02
#
DISCID=77111019
DTITLE=Various Artist - Country Classics Volume One
DYEAR=1900
DGENRE=Country
TTITLE0=Kenny Rogers - Ruby Don't Take Your Love To Town
TTITLE1=Charlie Rich - Behind Closed Doors
TTITLE2=Jennie C.Riley - Harper Valley P.T.A
TTITLE3=Don Williams - Ruby Tuesday
TTITLE4=Dolly Parton - Release Me
TTITLE5=Dave Dudley - Six Days On The Road
TTITLE6=Patsy Cline - Walking After Midnight
TTITLE7=Merle Haggard - Today I Started Loving You Again
TTITLE8=Conway Twitty - It's Only Make Believe
TTITLE9=George Jones - Good Year For The Roses
TTITLE10=Freddy Fender - Wasted Days Wasted Nights
TTITLE11=Tanya Tucker - Delta Dawn
TTITLE12=Bobby Bare - Tequilla Sheila
TTITLE13=Kathy Mattea - Ball And Chain
TTITLE14=Boxcar Willie - HoBo Heaven
TTITLE15=Bellamy Brothers - Red Neck Girl
TTITLE16=Lynn Anderson - Rose Garden
TTITLE17=Ed Bruce - Quietly Crazy
TTITLE18=Tammy Wynette - DIVORCE
TTITLE19=Guy Mitchell - Singing The Blues
TTITLE20=Johnny Rodriguez - How Could I Love Her So Much
TTITLE21=Jim Reeves - Just Call Me Lonesome
TTITLE22=Waylon Jennings - Crying
TTITLE23=Johnny Tillotson - Let It Be Me
TTITLE24=Dottie West - Leavin's For Unbelievers
EXTD=
EXTT0=
EXTT1=
EXTT2=
EXTT3=
EXTT4=
EXTT5=
EXTT6=
EXTT7=
EXTT8=
EXTT9=
EXTT10=
EXTT11=
EXTT12=
EXTT13=
EXTT14=
EXTT15=
EXTT16=
EXTT17=
EXTT18=
EXTT19=
EXTT20=
EXTT21=
EXTT22=
EXTT23=
EXTT24=
PLAYORDER=
